<svg version="1.1" id="Capa_1" xmlns="http://www.w3.org/2000/svg" xmlns:xlink="http://www.w3.org/1999/xlink" x="0px" y="0px"
	 viewBox="0 0 512 512" style="enable-background:new 0 0 512 512;" xml:space="preserve">
<style type="text/css">
	.st0{fill:#040633;stroke:#FFFFFF;stroke-width:17.8496;stroke-miterlimit:10;}
	.st1{fill:#FFFFFF;stroke:#52B1DC;stroke-width:16.6887;stroke-miterlimit:10;}
	.st2{fill:#52B1DC;stroke:#FFFFFF;stroke-width:5.8969;stroke-miterlimit:10;}
	.st3{fill:#52B1DC;stroke:#FFFFFF;stroke-width:10.1436;stroke-miterlimit:10;}
	.st4{fill:#040633;stroke:#FFFFFF;stroke-width:6.2583;stroke-miterlimit:10;}
	.st5{fill:none;stroke:#081533;stroke-width:6.2583;stroke-miterlimit:10;}
	.st6{fill:#FFFFFF;stroke:#081533;stroke-width:6.2583;stroke-miterlimit:10;}
	.st7{fill:none;stroke:#FFFFFF;stroke-width:8.3444;stroke-miterlimit:10;}
	.st8{fill:#040633;stroke:#FFFFFF;stroke-width:4.1722;stroke-miterlimit:10;}
	.st9{fill:#D1FC52;stroke:#FFFFFF;stroke-width:8.3444;stroke-miterlimit:10;}
	.st10{fill:#FFFFFF;stroke:#FFFFFF;stroke-width:1.268;stroke-miterlimit:10;}
	.st11{fill:#EBFC51;stroke:#FFFFFF;stroke-width:8.3444;stroke-miterlimit:10;}
	.st12{fill:#040633;}
</style>
<g>
	<path class="st0" d="M113.15,54.09c3.03-2.15,6.1-4.24,9.19-6.17C205.66-5.81,310.4-3.28,389.82,47.7
		c20.63,13.18,39.48,29.56,55.83,49.07c4.34,5.18,8.5,10.57,12.48,16.18c11.05,15.59,20.02,32.06,27.04,48.99
		c42.96,104.27,10.01,228.03-85.9,295.98l-1.79,1.27c-110.77,77.05-262.95,51.09-341.91-58.33l-1.27-1.79
		C-12.62,304.62-3.98,179.37,68.01,95.26c1.07-1.35,2.27-2.62,3.38-3.91C83.63,77.7,97.56,65.14,113.15,54.09z"/>
</g>
<g>
	<g>
		<path class="st1" d="M122.8,67.54c2.83-2.01,5.7-3.96,8.59-5.77c77.91-50.24,175.83-47.87,250.08-0.21
			c19.29,12.33,36.91,27.64,52.2,45.88c4.06,4.84,7.95,9.88,11.66,15.13c10.33,14.58,18.72,29.98,25.29,45.8
			c40.16,97.49,9.36,213.2-80.31,276.73l-1.68,1.19c-103.57,72.04-245.84,47.77-319.67-54.54l-1.19-1.68
			C5.2,301.77,13.29,184.67,80.59,106.03c1-1.26,2.12-2.45,3.16-3.66C95.2,89.62,108.22,77.87,122.8,67.54z"/>
	</g>
	
		<rect x="389.64" y="295.48" transform="matrix(0.0332 -0.9994 0.9994 0.0332 66.6831 725.6129)" class="st2" width="37.51" height="65.71"/>
	<path class="st3" d="M157.46,215.66l218.74,82.4l19.4,28.22c-3.12,4.62-6.33,9.1-9.64,13.43
		c-55.37,72.62-135.27,105.6-191.12,74.21C139.75,382.99,125.96,299.55,157.46,215.66z"/>
	<g>
		<path class="st4" d="M215.24,376.64H111.76c-2.97,0-5.39-2.41-5.39-5.39v-195.1c0-2.97,2.41-5.39,5.39-5.39h103.48
			c2.97,0,5.39,2.41,5.39,5.39v195.1C220.63,374.23,218.21,376.64,215.24,376.64z"/>
		<line class="st5" x1="105.63" y1="313.66" x2="218.28" y2="291.23"/>
		<path class="st6" d="M180.49,376.64h-32.4v-49.23c0-2.85,2.31-5.16,5.16-5.16h22.07c2.85,0,5.16,2.31,5.16,5.16V376.64z"/>
		<path class="st4" d="M201.82,170.77h-76.64v-29.81c0-2.97,2.41-5.39,5.39-5.39h65.87c2.97,0,5.39,2.41,5.39,5.39V170.77z"/>
		<line class="st7" x1="109" y1="232.98" x2="221.2" y2="210.65"/>
		<line class="st5" x1="105.67" y1="304.62" x2="217.86" y2="282.28"/>
		<path class="st4" d="M180.27,133.55h-32.4v-30.03c0-2.85,2.31-5.16,5.16-5.16h22.07c2.85,0,5.16,2.31,5.16,5.16V133.55z"/>
		<path class="st8" d="M185.7,132.51h-10.88V70.9c0-0.96,0.78-1.73,1.73-1.73h7.41c0.96,0,1.73,0.78,1.73,1.73V132.51z"/>
		<path class="st6" d="M168.3,162.77h-9.59c-1.24,0-2.24-1-2.24-2.24v-13.89c0-1.24,1-2.24,2.24-2.24h9.59c1.24,0,2.24,1,2.24,2.24
			v13.89C170.54,161.76,169.53,162.77,168.3,162.77z"/>
		<path class="st6" d="M140.15,272.63h-9.59c-1.24,0-2.24-1-2.24-2.24v-18.19c0-1.24,1-2.24,2.24-2.24h9.59c1.24,0,2.24,1,2.24,2.24
			v18.19C142.39,271.62,141.39,272.63,140.15,272.63z"/>
		<path class="st6" d="M199.58,205.08h-9.59c-1.24,0-2.24-1-2.24-2.24v-18.19c0-1.24,1-2.24,2.24-2.24h9.59c1.24,0,2.24,1,2.24,2.24
			v18.19C201.82,204.07,200.82,205.08,199.58,205.08z"/>
		<path class="st6" d="M136.95,204.59h-9.59c-1.24,0-2.24-1-2.24-2.24v-18.19c0-1.24,1-2.24,2.24-2.24h9.59c1.24,0,2.24,1,2.24,2.24
			v18.19C139.19,203.58,138.19,204.59,136.95,204.59z"/>
	</g>
	<path class="st9" d="M204.87,345.69"/>
	<path class="st3" d="M229.71,210.85c28.49,48.05,78.12,74.21,123.98,69.98c3.01,6.23,5.39,12.74,7.06,19.48
		c1.78,7.26,2.77,14.76,2.87,22.47c0.09,8.07-0.8,15.95-2.6,23.57c-12.09,51.55-65.13,90.78-129.19,91.54
		c-64.82,0.75-119.29-38.12-131.77-90.32c-1.68-7-2.61-14.23-2.69-21.67c-0.09-7.06,0.6-13.98,1.96-20.7
		c10.78-52.96,64.59-93.63,129.83-94.4c0.18,0,0.35-0.01,0.52,0C229.69,210.81,229.71,210.83,229.71,210.85z"/>
	<g>
		<circle class="st10" cx="136.04" cy="320.55" r="11.41"/>
		<circle class="st10" cx="227.19" cy="396.48" r="11.41"/>
		<circle class="st10" cx="218.79" cy="323.4" r="11.41"/>
		<circle class="st10" cx="313.76" cy="320.04" r="11.41"/>
		<circle class="st10" cx="217.65" cy="252.95" r="11.41"/>
	</g>
	<g>
		<path class="st11" d="M274.88,185.26c1.45,0.05,2.91,0.12,4.33,0.25c38.75,2.99,70.85,28.61,83.55,63.35
			c3.31,9.01,5.31,18.59,5.79,28.55c0.13,2.65,0.15,5.32,0.06,8.01c-0.25,7.49-1.35,14.76-3.17,21.71
			c-11.31,42.73-50.94,73.55-96.99,72.03l-0.86-0.03c-52.85-2.21-94.2-46.4-92.9-99.28l0.03-0.86c1.51-45.35,33.9-82.4,76.32-91.58
			c0.65-0.17,1.33-0.28,1.98-0.42C260.07,185.63,267.4,185.01,274.88,185.26z"/>
		<path class="st11" d="M274.88,185.26c1.45,0.05,2.91,0.12,4.33,0.25c38.75,2.99,70.85,28.61,83.55,63.35
			c3.31,9.01,5.31,18.59,5.79,28.55c-11.1,4.78-23.43,7.23-36.3,6.8c-46.86-1.56-83.57-40.79-82.01-87.65
			c0.1-3.1,0.37-6.16,0.79-9.17c0.65-0.17,1.33-0.28,1.98-0.42C260.07,185.63,267.4,185.01,274.88,185.26z"/>
		<path class="st11" d="M186.83,279.39c46.86,1.56,83.57,40.79,82.01,87.65c-0.14,4.12-0.57,8.15-1.26,12.09
			c-52.85-2.21-94.2-46.4-92.9-99.28C178.66,279.42,182.71,279.26,186.83,279.39z"/>
	</g>
	<g>
		<path class="st12" d="M315.01,152.12v-44.36h-34.44v44.36h-13.09V80.63c0-9.92,2.57-17.4,7.71-22.45
			c5.14-5.05,12.67-7.58,22.59-7.58c10.01,0,17.56,2.57,22.66,7.71c5.1,5.14,7.65,12.58,7.65,22.32v71.49H315.01z M315.01,83.38
			c0-3.12-0.25-6.04-0.76-8.75c-0.51-2.71-1.43-5.07-2.76-7.09c-1.33-2.02-3.1-3.6-5.3-4.75c-2.2-1.15-5.01-1.72-8.4-1.72
			c-3.4,0-6.2,0.57-8.4,1.72c-2.2,1.15-3.97,2.73-5.3,4.75c-1.33,2.02-2.25,4.39-2.75,7.09c-0.51,2.71-0.76,5.63-0.76,8.75V97.3
			h34.44V83.38z"/>
	</g>
	<g>
		<path class="st12" d="M400.25,183.04c-2.25,5.01-5.23,9.32-8.95,12.95c-3.72,3.63-8.13,6.45-13.22,8.47
			c-5.1,2.02-10.68,3.03-16.74,3.03c-7.35,0-13.91-1.38-19.7-4.13c-5.79-2.76-10.68-6.47-14.67-11.16c-4-4.68-7.03-10.12-9.09-16.32
			s-3.1-12.79-3.1-19.77c0-7.25,1.05-14.05,3.17-20.39c2.11-6.34,5.19-11.89,9.23-16.67c4.04-4.77,9.02-8.54,14.95-11.3
			c5.92-2.75,12.69-4.13,20.32-4.13c5.14,0,10.15,0.78,15.02,2.34c4.87,1.56,9.23,3.81,13.09,6.75c3.86,2.94,7.03,6.54,9.5,10.81
			c2.48,4.27,3.95,9.16,4.41,14.67H391.5c-0.37-3.67-1.45-6.96-3.24-9.85c-1.79-2.89-4.06-5.37-6.82-7.44
			c-2.75-2.07-5.81-3.65-9.16-4.75c-3.35-1.1-6.73-1.65-10.12-1.65c-5.79,0-10.84,1.19-15.15,3.58c-4.32,2.39-7.9,5.53-10.74,9.44
			c-2.85,3.9-4.96,8.33-6.34,13.29c-1.38,4.96-2.07,10.06-2.07,15.29c0,4.96,0.67,9.87,2,14.74c1.33,4.87,3.38,9.21,6.13,13.02
			c2.75,3.81,6.2,6.89,10.33,9.23s9,3.51,14.6,3.51c4.59,0,8.65-0.76,12.19-2.27c3.53-1.52,6.56-3.63,9.09-6.34
			c2.52-2.71,4.57-5.88,6.13-9.5c1.56-3.63,2.62-7.6,3.17-11.92h12.95C403.9,172.55,402.5,178.03,400.25,183.04z"/>
	</g>
	<g>
		<path class="st12" d="M454.89,194.21c0,4.96-0.85,9.3-2.55,13.02c-1.7,3.72-4.04,6.84-7.03,9.37c-2.99,2.53-6.57,4.41-10.74,5.65
			c-4.18,1.24-8.75,1.86-13.71,1.86h-16.12v39.95h-13.09v-99.18h30.99c5.42,0,10.15,0.76,14.19,2.27c4.04,1.52,7.39,3.61,10.06,6.27
			c2.66,2.66,4.66,5.76,5.99,9.3C454.23,186.24,454.89,190.08,454.89,194.21z M442.36,194.62c0-6.52-1.95-11.25-5.85-14.19
			c-3.9-2.94-9.39-4.41-16.46-4.41h-15.29v37.61h14.6c3.12,0,6.08-0.37,8.88-1.1c2.8-0.73,5.24-1.86,7.3-3.38
			c2.07-1.52,3.72-3.49,4.96-5.92C441.74,200.8,442.36,197.93,442.36,194.62z"/>
	</g>
</g>
</svg>
